<svg xmlns="http://www.w3.org/2000/svg" width="1040" height="1339" viewBox="0 0 1040 1339" font-family="SFMono-Regular, Consolas, 'Liberation Mono', Menlo, monospace"><defs><clipPath id="terminal-card-clip"><rect x="0.5" y="0.5" width="1039" height="1338" rx="8"/></clipPath></defs><g clip-path="url(#terminal-card-clip)"><rect x="0" y="0" width="1040" height="1339" fill="#0d1117"/><rect x="0" y="0" width="1040" height="30" fill="#161b22"/><line x1="0" y1="30" x2="1040" y2="30" stroke="#30363d"/><circle cx="14" cy="15.0" r="6" fill="#ff5f56"/><circle cx="34" cy="15.0" r="6" fill="#ffbd2e"/><circle cx="54" cy="15.0" r="6" fill="#27c93f"/><text x="520.0" y="19.0" font-size="12" text-anchor="middle" fill="#8b949e">stefan@stefvuck: ~ (neofetch | lang-stats | selected-repos)</text><g transform="translate(0,30)"><g><text x="16" y="32" font-size="14" fill="#7ee3e3" xml:space="preserve">                          ;</text><text x="16" y="52" font-size="14" fill="#7ee3e3" xml:space="preserve">                    '"!i~~~~!I,:^</text><text x="16" y="72" font-size="14" fill="#7ee3e3" xml:space="preserve">                  `;!!l!!!!~!l,;I;"</text><text x="16" y="92" font-size="14" fill="#7ee3e3" xml:space="preserve">               I!~!i~~!~?--_+~!i!~iI,</text><text x="16" y="112" font-size="14" fill="#7ee3e3" xml:space="preserve">             ,iii~~~~~i+_~___~+_+~+_;I:</text><text x="16" y="132" font-size="14" fill="#7ee3e3" xml:space="preserve">           `l!!i!______~i~__+++!i~i+~~i</text><text x="16" y="152" font-size="14" fill="#7ee3e3" xml:space="preserve">           l!l!!!-___+I!;!i~+_i!!~i~!l~;</text><text x="16" y="172" font-size="14" fill="#7ee3e3" xml:space="preserve">          ,i!!!l!~i~!i,:::;li!i!+l,!i~+I</text><text x="16" y="192" font-size="14" fill="#7ee3e3" xml:space="preserve">          :+~i~~lII!l,,:,,,"",l;:"""",~i`</text><text x="16" y="212" font-size="14" fill="#7ee3e3" xml:space="preserve">           iilI,,,,::,,"^^^,Il:,,"^^^,l+^</text><text x="16" y="232" font-size="14" fill="#7ee3e3" xml:space="preserve">           "!I",,;:l!I""^`",;l::,""''":l,</text><text x="16" y="252" font-size="14" fill="#7ee3e3" xml:space="preserve">            li,,":lli;","'',,;:::"'''"^'",</text><text x="16" y="272" font-size="14" fill="#7ee3e3" xml:space="preserve">           ;III:,I:,:,,:,"^^^""""^^^^^",",</text><text x="16" y="292" font-size="14" fill="#7ee3e3" xml:space="preserve">          ';::::::::::,;:,,"^,,,"^^^^^",,:</text><text x="16" y="312" font-size="14" fill="#7ee3e3" xml:space="preserve">           """,,"""",""::"""""^",^'''''''</text><text x="16" y="332" font-size="14" fill="#7ee3e3" xml:space="preserve">            "",""""","^""",""^^,,"'''^"</text><text x="16" y="352" font-size="14" fill="#7ee3e3" xml:space="preserve">             ,,,,:,,:ll;:"""":;I:,"^^^`</text><text x="16" y="372" font-size="14" fill="#7ee3e3" xml:space="preserve">                ';,::::I:::::,^^""'^'^`</text><text x="16" y="392" font-size="14" fill="#7ee3e3" xml:space="preserve">                 `,,""","","""''^''^''^'</text><text x="16" y="412" font-size="14" fill="#7ee3e3" xml:space="preserve">                   ",""""''``````'`''`^'``^,,^'</text><text x="16" y="432" font-size="14" fill="#7ee3e3" xml:space="preserve">                   ^:,,:,,,,,:,,,^''',^'''^:I;,:,,''"</text><text x="16" y="452" font-size="14" fill="#7ee3e3" xml:space="preserve">                    ,:,;::::::,,"^^",^^^^^^^:;:;::::II,;;"</text><text x="16" y="472" font-size="14" fill="#7ee3e3" xml:space="preserve">                     ,":,,,,,^'^^","^^^'^^'":;:I:,,;:,",:^</text><text x="16" y="492" font-size="14" fill="#7ee3e3" xml:space="preserve">                    `"""^^^^^^'`^^`````````^,^^:"",,:,,,"^</text><text x="16" y="512" font-size="14" fill="#7ee3e3" xml:space="preserve">                   ,iI,,,,,,,,,,,^'^'''''^,:II;;:;:II:;II"</text><text x="16" y="532" font-size="14" fill="#7ee3e3" xml:space="preserve">                ,I_-?I,"^",:::,:~il,^^^^^,,I!:,!:;:l!!I!l,</text><text x="16" y="552" font-size="14" fill="#7ee3e3" xml:space="preserve">             ^!++_~+-,,:"^!iIi++-+!l,,""",:;;,,:;::;II;:;^</text><text x="16" y="572" font-size="14" fill="#7ee3e3" xml:space="preserve">          ``!i~~i~ii;"^"';!llii~+l^^'```'",:,^,;:,,:;:^,,^</text><text x="16" y="592" font-size="14" fill="#7ee3e3" xml:space="preserve">         'i+~i~~~+ii:"",,::!!+i~i,",^^^'",,;;,,l;;!!l;":l^</text><text x="16" y="612" font-size="14" fill="#7ee3e3" xml:space="preserve">        :i+?_+--_-+i;::::::;i-!!I::,^^^',;:;l;;!lll;;:,:;^</text><text x="536.8000000000001" y="32" font-size="14" font-weight="bold" fill="#7ee3e3">stefan@stefvuck</text><text x="536.8000000000001" y="52" font-size="14" fill="#484f58">----------------------------------------------------------</text><text x="536.8000000000001" y="72" font-size="14" xml:space="preserve"><tspan fill="#e3b341">OS:</tspan><tspan fill="#484f58"> ................... </tspan><tspan fill="#c9d1d9">macOS, Linux, Embedded Targets</tspan></text><text x="536.8000000000001" y="92" font-size="14" xml:space="preserve"><tspan fill="#e3b341">Host:</tspan><tspan fill="#484f58"> ................. </tspan><tspan fill="#c9d1d9">University of Glasgow</tspan></text><text x="536.8000000000001" y="112" font-size="14" xml:space="preserve"><tspan fill="#e3b341">Uptime:</tspan><tspan fill="#484f58"> ............... </tspan><tspan fill="#c9d1d9">23 years, 0 months, 27 days</tspan></text><text x="536.8000000000001" y="132" font-size="14" xml:space="preserve"><tspan fill="#e3b341">Role:</tspan><tspan fill="#484f58"> ................. </tspan><tspan fill="#c9d1d9">Software Dev @ Squarepoint Capital</tspan></text><text x="536.8000000000001" y="152" font-size="14" xml:space="preserve"><tspan fill="#e3b341">Field:</tspan><tspan fill="#484f58"> ................ </tspan><tspan fill="#c9d1d9">MEng Electronics &amp; Software Eng.</tspan></text><text x="536.8000000000001" y="172" font-size="14" xml:space="preserve"><tspan fill="#e3b341">IDE:</tspan><tspan fill="#484f58"> .................. </tspan><tspan fill="#c9d1d9">Neovim, VS Code, CLion</tspan></text><text x="536.8000000000001" y="212" font-size="14" xml:space="preserve"><tspan fill="#e3b341">Languages.Proficient:</tspan><tspan fill="#484f58"> ... </tspan><tspan fill="#c9d1d9">Python, C++, TypeScript, JS</tspan></text><text x="536.8000000000001" y="232" font-size="14" xml:space="preserve"><tspan fill="#e3b341">Languages.Learning:</tspan><tspan fill="#484f58"> ... </tspan><tspan fill="#c9d1d9">Rust, Elixir, ARM/x86 Assembly</tspan></text><text x="536.8000000000001" y="252" font-size="14" xml:space="preserve"><tspan fill="#e3b341">Languages.Real:</tspan><tspan fill="#484f58"> ....... </tspan><tspan fill="#c9d1d9">English, Serbian, German</tspan></text><text x="536.8000000000001" y="292" font-size="14" font-weight="bold" fill="#79c0ff">Contact <tspan fill="#484f58">--------------------------------------------------</tspan></text><text x="536.8000000000001" y="312" font-size="14" xml:space="preserve"><tspan fill="#e3b341">Email:</tspan><tspan fill="#484f58"> ................ </tspan><tspan fill="#c9d1d9">stefan@stefvuck.dev</tspan></text><text x="536.8000000000001" y="332" font-size="14" xml:space="preserve"><tspan fill="#e3b341">LinkedIn:</tspan><tspan fill="#484f58"> ............. </tspan><tspan fill="#c9d1d9">/in/stefan-vučković</tspan></text><text x="536.8000000000001" y="352" font-size="14" xml:space="preserve"><tspan fill="#e3b341">Portfolio:</tspan><tspan fill="#484f58"> ............ </tspan><tspan fill="#c9d1d9">stefvuck.dev</tspan></text><text x="536.8000000000001" y="372" font-size="14" xml:space="preserve"><tspan fill="#e3b341">CV:</tspan><tspan fill="#484f58"> ................... </tspan><tspan fill="#c9d1d9">cv.stefvuck.dev</tspan></text><text x="536.8000000000001" y="392" font-size="14" xml:space="preserve"><tspan fill="#e3b341">GitHub:</tspan><tspan fill="#484f58"> ............... </tspan><tspan fill="#c9d1d9">@StefVuck</tspan></text><text x="536.8000000000001" y="432" font-size="14" font-weight="bold" fill="#79c0ff">GitHub Stats <tspan fill="#484f58">---------------------------------------------</tspan></text><text x="536.8000000000001" y="452" font-size="14" xml:space="preserve"><tspan fill="#e3b341">Repos:</tspan><tspan fill="#484f58"> .... </tspan><tspan fill="#c9d1d9">37</tspan><tspan fill="#484f58">   |   </tspan><tspan fill="#e3b341">Stars:</tspan><tspan fill="#484f58"> .... </tspan><tspan fill="#c9d1d9">?</tspan></text><text x="536.8000000000001" y="472" font-size="14" xml:space="preserve"><tspan fill="#e3b341">Followers:</tspan><tspan fill="#484f58"> .. </tspan><tspan fill="#c9d1d9">37</tspan><tspan fill="#484f58">   |   </tspan><tspan fill="#e3b341">Following:</tspan><tspan fill="#484f58"> .. </tspan><tspan fill="#c9d1d9">20</tspan></text><text x="536.8000000000001" y="492" font-size="14" xml:space="preserve"><tspan fill="#e3b341">Public Gists:</tspan><tspan fill="#484f58"> ......... </tspan><tspan fill="#c9d1d9">4</tspan></text><text x="536.8000000000001" y="512" font-size="14" xml:space="preserve"><tspan fill="#e3b341">Languages Tracked:</tspan><tspan fill="#484f58"> .... </tspan><tspan fill="#c9d1d9">23 (TypeScript top)</tspan></text></g><line x1="0" y1="648" x2="1040" y2="648" stroke="#30363d"/><g transform="translate(0,664)"><text x="16" y="29" font-size="15" font-weight="bold" fill="#79c0ff">$ lang-stats --by-lines StefVuck</text><text x="16" y="51" font-size="13" fill="#8b949e">23 languages tracked &#183; 92.1K lines total</text><text x="95.8" y="73" font-size="13" text-anchor="end" fill="#c9d1d9">TypeScript</text><rect x="101.8" y="60" width="260" height="12" rx="2" fill="#30363d"/><rect x="101.8" y="60" width="260" height="12" rx="2" fill="#2b7489"/><text x="369.8" y="73" font-size="13" fill="#8b949e">35.6K</text><text x="95.8" y="95" font-size="13" text-anchor="end" fill="#c9d1d9">Python</text><rect x="101.8" y="82" width="260" height="12" rx="2" fill="#30363d"/><rect x="101.8" y="82" width="186" height="12" rx="2" fill="#3572A5"/><text x="369.8" y="95" font-size="13" fill="#8b949e">18.3K</text><text x="95.8" y="117" font-size="13" text-anchor="end" fill="#c9d1d9">Swift</text><rect x="101.8" y="104" width="260" height="12" rx="2" fill="#30363d"/><rect x="101.8" y="104" width="158" height="12" rx="2" fill="#ffac45"/><text x="369.8" y="117" font-size="13" fill="#8b949e">13.2K</text><text x="95.8" y="139" font-size="13" text-anchor="end" fill="#c9d1d9">Lua</text><rect x="101.8" y="126" width="260" height="12" rx="2" fill="#30363d"/><rect x="101.8" y="126" width="90" height="12" rx="2" fill="#000080"/><text x="369.8" y="139" font-size="13" fill="#8b949e">4.3K</text><text x="95.8" y="161" font-size="13" text-anchor="end" fill="#c9d1d9">Elixir</text><rect x="101.8" y="148" width="260" height="12" rx="2" fill="#30363d"/><rect x="101.8" y="148" width="83" height="12" rx="2" fill="#6e4a7e"/><text x="369.8" y="161" font-size="13" fill="#8b949e">3.6K</text><text x="95.8" y="183" font-size="13" text-anchor="end" fill="#c9d1d9">Go</text><rect x="101.8" y="170" width="260" height="12" rx="2" fill="#30363d"/><rect x="101.8" y="170" width="79" height="12" rx="2" fill="#00ADD8"/><text x="369.8" y="183" font-size="13" fill="#8b949e">3.3K</text><text x="95.8" y="205" font-size="13" text-anchor="end" fill="#c9d1d9">CUDA</text><rect x="101.8" y="192" width="260" height="12" rx="2" fill="#30363d"/><rect x="101.8" y="192" width="69" height="12" rx="2" fill="#888888"/><text x="369.8" y="205" font-size="13" fill="#8b949e">2.5K</text><text x="95.8" y="227" font-size="13" text-anchor="end" fill="#c9d1d9">Nix</text><rect x="101.8" y="214" width="260" height="12" rx="2" fill="#30363d"/><rect x="101.8" y="214" width="66" height="12" rx="2" fill="#7e7eff"/><text x="369.8" y="227" font-size="13" fill="#8b949e">2.3K</text><text x="95.8" y="249" font-size="13" text-anchor="end" fill="#c9d1d9">C++</text><rect x="101.8" y="236" width="260" height="12" rx="2" fill="#30363d"/><rect x="101.8" y="236" width="60" height="12" rx="2" fill="#f34b7d"/><text x="369.8" y="249" font-size="13" fill="#8b949e">1.9K</text><text x="95.8" y="271" font-size="13" text-anchor="end" fill="#c9d1d9">Zig</text><rect x="101.8" y="258" width="260" height="12" rx="2" fill="#30363d"/><rect x="101.8" y="258" width="53" height="12" rx="2" fill="#ec915c"/><text x="369.8" y="271" font-size="13" fill="#8b949e">1.5K</text><text x="95.8" y="293" font-size="13" text-anchor="end" fill="#c9d1d9">Shell</text><rect x="101.8" y="280" width="260" height="12" rx="2" fill="#30363d"/><rect x="101.8" y="280" width="53" height="12" rx="2" fill="#89e051"/><text x="369.8" y="293" font-size="13" fill="#8b949e">1.5K</text><text x="95.8" y="315" font-size="13" text-anchor="end" fill="#c9d1d9">Haskell</text><rect x="101.8" y="302" width="260" height="12" rx="2" fill="#30363d"/><rect x="101.8" y="302" width="43" height="12" rx="2" fill="#5e5086"/><text x="369.8" y="315" font-size="13" fill="#8b949e">988</text><text x="95.8" y="337" font-size="13" text-anchor="end" fill="#c9d1d9">C</text><rect x="101.8" y="324" width="260" height="12" rx="2" fill="#30363d"/><rect x="101.8" y="324" width="36" height="12" rx="2" fill="#555555"/><text x="369.8" y="337" font-size="13" fill="#8b949e">683</text><text x="95.8" y="359" font-size="13" text-anchor="end" fill="#c9d1d9">Rust</text><rect x="101.8" y="346" width="260" height="12" rx="2" fill="#30363d"/><rect x="101.8" y="346" width="32" height="12" rx="2" fill="#dea584"/><text x="369.8" y="359" font-size="13" fill="#8b949e">548</text><text x="95.8" y="381" font-size="13" text-anchor="end" fill="#c9d1d9">COBOL</text><rect x="101.8" y="368" width="260" height="12" rx="2" fill="#30363d"/><rect x="101.8" y="368" width="26" height="12" rx="2" fill="#555555"/><text x="369.8" y="381" font-size="13" fill="#8b949e">367</text><text x="95.8" y="403" font-size="13" text-anchor="end" fill="#c9d1d9">Arduino</text><rect x="101.8" y="390" width="260" height="12" rx="2" fill="#30363d"/><rect x="101.8" y="390" width="24" height="12" rx="2" fill="#bd79d1"/><text x="369.8" y="403" font-size="13" fill="#8b949e">299</text><text x="95.8" y="425" font-size="13" text-anchor="end" fill="#c9d1d9">Assembly</text><rect x="101.8" y="412" width="260" height="12" rx="2" fill="#30363d"/><rect x="101.8" y="412" width="23" height="12" rx="2" fill="#6E4C13"/><text x="369.8" y="425" font-size="13" fill="#8b949e">287</text><text x="95.8" y="447" font-size="13" text-anchor="end" fill="#c9d1d9">PowerShell</text><rect x="101.8" y="434" width="260" height="12" rx="2" fill="#30363d"/><rect x="101.8" y="434" width="23" height="12" rx="2" fill="#012456"/><text x="369.8" y="447" font-size="13" fill="#8b949e">287</text><text x="95.8" y="469" font-size="13" text-anchor="end" fill="#c9d1d9">SQL</text><rect x="101.8" y="456" width="260" height="12" rx="2" fill="#30363d"/><rect x="101.8" y="456" width="23" height="12" rx="2" fill="#e38c00"/><text x="369.8" y="469" font-size="13" fill="#8b949e">275</text><text x="95.8" y="491" font-size="13" text-anchor="end" fill="#c9d1d9">Dockerfile</text><rect x="101.8" y="478" width="260" height="12" rx="2" fill="#30363d"/><rect x="101.8" y="478" width="18" height="12" rx="2" fill="#384d54"/><text x="369.8" y="491" font-size="13" fill="#8b949e">171</text><text x="95.8" y="513" font-size="13" text-anchor="end" fill="#c9d1d9">CMake</text><rect x="101.8" y="500" width="260" height="12" rx="2" fill="#30363d"/><rect x="101.8" y="500" width="12" height="12" rx="2" fill="#DA3434"/><text x="369.8" y="513" font-size="13" fill="#8b949e">81</text><text x="95.8" y="535" font-size="13" text-anchor="end" fill="#c9d1d9">Makefile</text><rect x="101.8" y="522" width="260" height="12" rx="2" fill="#30363d"/><rect x="101.8" y="522" width="9" height="12" rx="2" fill="#427819"/><text x="369.8" y="535" font-size="13" fill="#8b949e">45</text><text x="95.8" y="557" font-size="13" text-anchor="end" fill="#c9d1d9">Svelte</text><rect x="101.8" y="544" width="260" height="12" rx="2" fill="#30363d"/><rect x="101.8" y="544" width="8" height="12" rx="2" fill="#ff3e00"/><text x="369.8" y="557" font-size="13" fill="#8b949e">31</text></g><line x1="444" y1="680" x2="444" y2="1309" stroke="#30363d"/><g transform="translate(0,664)"><text x="460" y="29" font-size="15" font-weight="bold" fill="#79c0ff">$ ls ~/selected-repos</text><text x="460" y="62.6" font-size="13" font-weight="bold" fill="#7ee3e3">&#9656; GUDForum</text><text x="460" y="83.6" font-size="12" font-style="italic" fill="#e3b341">Go · Gin · PostgreSQL · React · TS</text><text x="460" y="104.6" font-size="13" fill="#c9d1d9">Real-time drone society forum with</text><text x="460" y="125.6" font-size="13" fill="#c9d1d9">secure auth</text><text x="460" y="157.1" font-size="13" font-weight="bold" fill="#7ee3e3">&#9656; CVinTUI</text><text x="460" y="178.1" font-size="12" font-style="italic" fill="#e3b341">Go · Bubbletea · Lipgloss · AWS</text><text x="460" y="199.1" font-size="13" fill="#c9d1d9">SSH-accessible terminal CV, cloud-</text><text x="460" y="220.1" font-size="13" fill="#c9d1d9">hosted</text><text x="460" y="251.6" font-size="13" font-weight="bold" fill="#7ee3e3">&#9656; DYHTG2024T01</text><text x="460" y="272.6" font-size="12" font-style="italic" fill="#e3b341">React Native · DSP</text><text x="460" y="293.6" font-size="13" fill="#c9d1d9">Hackathon rhythm game with live beatmap</text><text x="460" y="314.6" font-size="13" fill="#c9d1d9">generation</text><text x="460" y="346.1" font-size="13" font-weight="bold" fill="#7ee3e3">&#9656; Drone Swarm Sim</text><text x="460" y="367.1" font-size="12" font-style="italic" fill="#e3b341">Distributed Systems · Simulation</text><text x="460" y="388.1" font-size="13" fill="#c9d1d9">Distributed drone-swarm logic</text><text x="460" y="409.1" font-size="13" fill="#c9d1d9">autonomously forming 2D/3D shapes</text><text x="460" y="440.6" font-size="13" font-weight="bold" fill="#7ee3e3">&#9656; UGRacing Telemetry</text><text x="460" y="461.6" font-size="12" font-style="italic" fill="#e3b341">Arduino · LTE-M · Terraform · C/C++</text><text x="460" y="482.6" font-size="13" fill="#c9d1d9">Sub-500ms racecar telemetry pipeline,</text><text x="460" y="503.6" font-size="13" fill="#c9d1d9">live track-side diagnostics</text><text x="460" y="535.1" font-size="13" font-weight="bold" fill="#7ee3e3">&#9656; CAN Display</text><text x="460" y="556.1" font-size="12" font-style="italic" fill="#e3b341">C · CAN Protocol · LCD</text><text x="460" y="577.1" font-size="13" fill="#c9d1d9">Low-level CAN bus data visualization on</text><text x="460" y="598.1" font-size="13" fill="#c9d1d9">LCD</text></g></g></g><rect x="0.5" y="0.5" width="1039" height="1338" rx="8" fill="none" stroke="#30363d"/></svg>