<svg xmlns="http://www.w3.org/2000/svg" width="817" height="1319" viewBox="0 0 817 1319" font-family="SFMono-Regular, Consolas, 'Liberation Mono', Menlo, monospace"><defs><clipPath id="terminal-card-clip"><rect x="0.5" y="0.5" width="816" height="1318" rx="8"/></clipPath></defs><g clip-path="url(#terminal-card-clip)"><rect x="0" y="0" width="817" height="1319" fill="#ffffff"/><rect x="0" y="0" width="817" height="30" fill="#f6f8fa"/><line x1="0" y1="30" x2="817" y2="30" stroke="#d0d7de"/><circle cx="14" cy="15.0" r="6" fill="#ff5f56"/><circle cx="34" cy="15.0" r="6" fill="#ffbd2e"/><circle cx="54" cy="15.0" r="6" fill="#27c93f"/><text x="408.5" y="19.0" font-size="12" text-anchor="middle" fill="#57606a">stefan@stefvuck: ~ (neofetch | lang-stats | selected-repos)</text><g transform="translate(0,30)"><g><text x="16" y="23" font-size="7" fill="#0b6e6e" xml:space="preserve">                        .}</text><text x="16" y="34" font-size="7" fill="#0b6e6e" xml:space="preserve">                   *#@[[[[#@())%}@~</text><text x="16" y="45" font-size="7" fill="#0b6e6e" xml:space="preserve">                 ==~        ^&gt;=)[}(&gt;&gt;</text><text x="16" y="56" font-size="7" fill="#0b6e6e" xml:space="preserve">              *..:~=.         &gt;[ .  ~)}</text><text x="16" y="67" font-size="7" fill="#0b6e6e" xml:space="preserve">           ~~* .*.:&gt;==~ =^    :       ~&gt;@</text><text x="16" y="78" font-size="7" fill="#0b6e6e" xml:space="preserve">         ^^~       .~    ~    ~~ .   := #%</text><text x="16" y="89" font-size="7" fill="#0b6e6e" xml:space="preserve">        *   .     :.  =~.     : .~:*@#   ~.</text><text x="16" y="100" font-size="7" fill="#0b6e6e" xml:space="preserve">          .~:    .                  .  :=~&gt;#</text><text x="16" y="111" font-size="7" fill="#0b6e6e" xml:space="preserve">      *~:~=~         :)}=..      =~ = ..   ^</text><text x="16" y="122" font-size="7" fill="#0b6e6e" xml:space="preserve">     .*~:     &gt;=)  &gt;^}#@@(&gt;&gt; .  .   @@    ~=</text><text x="16" y="133" font-size="7" fill="#0b6e6e" xml:space="preserve">    . .     .@@&gt;  ~*[#[}}}%[^         ^*:~* .</text><text x="16" y="144" font-size="7" fill="#0b6e6e" xml:space="preserve">          :~^   *@@%%[)([[#@@@@@@@@@@@@@@@}&gt;</text><text x="16" y="155" font-size="7" fill="#0b6e6e" xml:space="preserve">        .}@@@@@@@@@@@}}#[[@@@@@[=~:*}%@#@%}#</text><text x="16" y="166" font-size="7" fill="#0b6e6e" xml:space="preserve">      ~(@@%@[(&gt;^: .^%##%[}=    :%@@@&gt; .(@#*)</text><text x="16" y="177" font-size="7" fill="#0b6e6e" xml:space="preserve">        @#~   :*~= . ^)(}#[}#.    . .[#%@}.* [@)</text><text x="16" y="188" font-size="7" fill="#0b6e6e" xml:space="preserve">        @# #@@%^    :^*)#@}[^ )^*)[((*^[#(.@@@~</text><text x="16" y="199" font-size="7" fill="#0b6e6e" xml:space="preserve">         @))   :~([())~^}#%#@#*:=&gt;((#%}(#[)@}@@~</text><text x="16" y="210" font-size="7" fill="#0b6e6e" xml:space="preserve">     =%[ ()))[}(&gt;^&gt;)%)*^)[[[}@@@@@}[}#[)%#}#  [}</text><text x="16" y="221" font-size="7" fill="#0b6e6e" xml:space="preserve">     ::#}&gt;((%#%#}}@%):&gt;}[%@@@#((#@@#[[[((##@#~:^</text><text x="16" y="232" font-size="7" fill="#0b6e6e" xml:space="preserve">     )%# =*)[[}}#@%)#@%[()[~.}[&gt;.^%%%%#})#[)=@[.</text><text x="16" y="243" font-size="7" fill="#0b6e6e" xml:space="preserve">      [()@=&gt;)[[}#)=.      ..~&gt;)}*  ^}}[[)#(@%#)</text><text x="16" y="254" font-size="7" fill="#0b6e6e" xml:space="preserve">      .[:~==&gt;[[[[ =}@@@@@@%@@@@@@@@ ^}[[(#</text><text x="16" y="265" font-size="7" fill="#0b6e6e" xml:space="preserve">       ~@@(*^^[[.^@@@*              &gt;}[[[#~</text><text x="16" y="276" font-size="7" fill="#0b6e6e" xml:space="preserve">         ^@[(^&gt;[&gt;=   @@@@@@@@@@( %@(&gt;&gt;(([}</text><text x="16" y="287" font-size="7" fill="#0b6e6e" xml:space="preserve">             .*&gt;@@@}    ..   .~[@@#[([}}}[:</text><text x="16" y="298" font-size="7" fill="#0b6e6e" xml:space="preserve">              .^*(%%%(::.:~::=[@(&gt;[[[}#}}#(</text><text x="16" y="309" font-size="7" fill="#0b6e6e" xml:space="preserve">               :(*)##%##)^&gt;)&gt;[(^[%%%}((([#[ )</text><text x="16" y="320" font-size="7" fill="#0b6e6e" xml:space="preserve">                )}(((##}%@@@@@@@@@#[()([=}@ %^:</text><text x="16" y="331" font-size="7" fill="#0b6e6e" xml:space="preserve">                 =^^[[}%%@@##%%#[)^&gt;&gt;)}()%) @#[&gt;~</text><text x="16" y="342" font-size="7" fill="#0b6e6e" xml:space="preserve">                 :&gt;. :~~~*=......^([[}[[%# @@#}[@@@@@=~^*=:</text><text x="16" y="353" font-size="7" fill="#0b6e6e" xml:space="preserve">                  :[^*~.   .:~*^&gt;((((([}( %@#}}}}@}@@~===~^*&gt;~</text><text x="16" y="364" font-size="7" fill="#0b6e6e" xml:space="preserve">                   &gt;[)&gt;)))&gt;^^^)(}}([}}}&gt; %@}[}[}}@(@[ ^&gt;)=^^&gt;[*)(^^</text><text x="16" y="375" font-size="7" fill="#0b6e6e" xml:space="preserve">                   ((}()(}#%%####}#}})=~@@#}}}[}#@(@  ~~*~*=:*:=)</text><text x="16" y="386" font-size="7" fill="#0b6e6e" xml:space="preserve">                   * }}&gt;**)^(%%#[[[}):(%%#}}}}}}@}}) ))*&gt;&gt;&gt;[&gt;)~.</text><text x="16" y="397" font-size="7" fill="#0b6e6e" xml:space="preserve">                  .@  &gt;%}*^^=~*))[)~ }%#}}}}}}#%@)@  ^~*=~:.*~</text><text x="16" y="408" font-size="7" fill="#0b6e6e" xml:space="preserve">                   ^@@  =}%#}[[[[)^@@@%#}}}}}}}@}}. &gt;[&gt;*^~^)^</text><text x="16" y="419" font-size="7" fill="#0b6e6e" xml:space="preserve">                    }@@@%   *)[[[@@(}@@@@%#}}[%%&gt;[ .*=^=)~[:</text><text x="16" y="430" font-size="7" fill="#0b6e6e" xml:space="preserve">                = .@[^[%@@@@@@%@@   :   %@@@@@@&gt;):^&gt;*)**~</text><text x="16" y="441" font-size="7" fill="#0b6e6e" xml:space="preserve">             =:~&gt; .((&gt;^)@}       ~=))~ )   .#@@*% ~*~^</text><text x="16" y="452" font-size="7" fill="#0b6e6e" xml:space="preserve">          :=== :. =#(}(%@ :=~~~===)&gt;~ @@(}%^  =@* ==</text><text x="16" y="463" font-size="7" fill="#0b6e6e" xml:space="preserve">         ~~..==^.&gt;@@)&gt;[@&gt;  .=~~***^. @@&gt;)%}}#%@@ .</text><text x="16" y="474" font-size="7" fill="#0b6e6e" xml:space="preserve">              .. }(()*}@ *}  :=**&gt;~ @%=^#}[}^:</text><text x="16" y="485" font-size="7" fill="#0b6e6e" xml:space="preserve">                   ~%&gt;)[ (@@  :~~=.%#%)^</text><text x="16" y="496" font-size="7" fill="#0b6e6e" xml:space="preserve">                           *.       :</text><text x="331.00000000000006" y="32" font-size="14" font-weight="bold" fill="#0b6e6e">stefan@stefvuck</text><text x="331.00000000000006" y="52" font-size="14" fill="#c9d1d9">--------------------------------------------------------</text><text x="331.00000000000006" y="72" font-size="14" xml:space="preserve"><tspan fill="#9a6700">OS:</tspan><tspan fill="#c9d1d9"> ................... </tspan><tspan fill="#24292f">macOS</tspan></text><text x="331.00000000000006" y="92" font-size="14" xml:space="preserve"><tspan fill="#9a6700">Host:</tspan><tspan fill="#c9d1d9"> ................. </tspan><tspan fill="#24292f">Squarepoint Capital</tspan></text><text x="331.00000000000006" y="112" font-size="14" xml:space="preserve"><tspan fill="#9a6700">Uptime:</tspan><tspan fill="#c9d1d9"> ............... </tspan><tspan fill="#24292f">23 years, 1 months, 20 days</tspan></text><text x="331.00000000000006" y="132" font-size="14" xml:space="preserve"><tspan fill="#9a6700">Role:</tspan><tspan fill="#c9d1d9"> ................. </tspan><tspan fill="#24292f">Software Dev</tspan></text><text x="331.00000000000006" y="152" font-size="14" xml:space="preserve"><tspan fill="#9a6700">IDE:</tspan><tspan fill="#c9d1d9"> .................. </tspan><tspan fill="#24292f">Neovim</tspan></text><text x="331.00000000000006" y="192" font-size="14" font-weight="bold" fill="#0969da">Education <tspan fill="#c9d1d9">----------------------------------------------</tspan></text><text x="331.00000000000006" y="212" font-size="14" xml:space="preserve"><tspan fill="#9a6700">Uni:</tspan><tspan fill="#c9d1d9"> .................. </tspan><tspan fill="#24292f">University of Glasgow</tspan></text><text x="331.00000000000006" y="232" font-size="14" xml:space="preserve"><tspan fill="#9a6700">Degree:</tspan><tspan fill="#c9d1d9"> ............... </tspan><tspan fill="#24292f">MEng Electronics &amp; Software Eng.</tspan></text><text x="331.00000000000006" y="252" font-size="14" xml:space="preserve"><tspan fill="#9a6700">Honours:</tspan><tspan fill="#c9d1d9"> .............. </tspan><tspan fill="#24292f">First Class</tspan></text><text x="331.00000000000006" y="292" font-size="14" xml:space="preserve"><tspan fill="#9a6700">Languages.Proficient:</tspan><tspan fill="#c9d1d9"> ... </tspan><tspan fill="#24292f">C++, C, Python, TypeScript</tspan></text><text x="331.00000000000006" y="312" font-size="14" xml:space="preserve"><tspan fill="#9a6700">Languages.Learning:</tspan><tspan fill="#c9d1d9"> ... </tspan><tspan fill="#24292f">Zig, Rust, Elixir</tspan></text><text x="331.00000000000006" y="332" font-size="14" xml:space="preserve"><tspan fill="#9a6700">Languages.Real:</tspan><tspan fill="#c9d1d9"> ....... </tspan><tspan fill="#24292f">English, Serbian</tspan></text><text x="331.00000000000006" y="372" font-size="14" font-weight="bold" fill="#0969da">Contact <tspan fill="#c9d1d9">------------------------------------------------</tspan></text><text x="331.00000000000006" y="392" font-size="14" xml:space="preserve"><tspan fill="#9a6700">Email:</tspan><tspan fill="#c9d1d9"> ................ </tspan><tspan fill="#24292f">stefan@stefvuck.dev</tspan></text><text x="331.00000000000006" y="412" font-size="14" xml:space="preserve"><tspan fill="#9a6700">LinkedIn:</tspan><tspan fill="#c9d1d9"> ............. </tspan><tspan fill="#24292f">/in/StefVuck</tspan></text><text x="331.00000000000006" y="432" font-size="14" xml:space="preserve"><tspan fill="#9a6700">Portfolio:</tspan><tspan fill="#c9d1d9"> ............ </tspan><tspan fill="#24292f">stefvuck.dev</tspan></text><text x="331.00000000000006" y="452" font-size="14" xml:space="preserve"><tspan fill="#9a6700">CV:</tspan><tspan fill="#c9d1d9"> ................... </tspan><tspan fill="#24292f">cv.stefvuck.dev</tspan></text><text x="331.00000000000006" y="472" font-size="14" xml:space="preserve"><tspan fill="#9a6700">GitHub:</tspan><tspan fill="#c9d1d9"> ............... </tspan><tspan fill="#24292f">@StefVuck</tspan></text><text x="331.00000000000006" y="512" font-size="14" font-weight="bold" fill="#0969da">GitHub Stats <tspan fill="#c9d1d9">-------------------------------------------</tspan></text><text x="331.00000000000006" y="532" font-size="14" xml:space="preserve"><tspan fill="#9a6700">Repos:</tspan><tspan fill="#c9d1d9"> .... </tspan><tspan fill="#24292f">37</tspan><tspan fill="#c9d1d9">   |   </tspan><tspan fill="#9a6700">Stars:</tspan><tspan fill="#c9d1d9"> .... </tspan><tspan fill="#24292f">25</tspan></text><text x="331.00000000000006" y="552" font-size="14" xml:space="preserve"><tspan fill="#9a6700">Followers:</tspan><tspan fill="#c9d1d9"> .. </tspan><tspan fill="#24292f">38</tspan><tspan fill="#c9d1d9">   |   </tspan><tspan fill="#9a6700">Following:</tspan><tspan fill="#c9d1d9"> .. </tspan><tspan fill="#24292f">21</tspan></text><text x="331.00000000000006" y="572" font-size="14" xml:space="preserve"><tspan fill="#9a6700">Public Gists:</tspan><tspan fill="#c9d1d9"> ......... </tspan><tspan fill="#24292f">4</tspan></text><text x="331.00000000000006" y="592" font-size="14" xml:space="preserve"><tspan fill="#9a6700">Languages Tracked:</tspan><tspan fill="#c9d1d9"> .... </tspan><tspan fill="#24292f">23 (TypeScript top)</tspan></text></g><line x1="0" y1="628" x2="817" y2="628" stroke="#d0d7de"/><g transform="translate(0,644)"><text x="16" y="29" font-size="15" font-weight="bold" fill="#0969da">$ lang-stats --by-lines StefVuck</text><text x="16" y="51" font-size="13" fill="#57606a">23 languages tracked &#183; 92.1K lines total</text><text x="95.8" y="73" font-size="13" text-anchor="end" fill="#24292f">TypeScript</text><rect x="101.8" y="60" width="260" height="12" rx="2" fill="#d0d7de"/><rect x="101.8" y="60" width="260" height="12" rx="2" fill="#2b7489"/><text x="369.8" y="73" font-size="13" fill="#57606a">35.6K</text><text x="95.8" y="95" font-size="13" text-anchor="end" fill="#24292f">Python</text><rect x="101.8" y="82" width="260" height="12" rx="2" fill="#d0d7de"/><rect x="101.8" y="82" width="186" height="12" rx="2" fill="#3572A5"/><text x="369.8" y="95" font-size="13" fill="#57606a">18.3K</text><text x="95.8" y="117" font-size="13" text-anchor="end" fill="#24292f">Swift</text><rect x="101.8" y="104" width="260" height="12" rx="2" fill="#d0d7de"/><rect x="101.8" y="104" width="158" height="12" rx="2" fill="#ffac45"/><text x="369.8" y="117" font-size="13" fill="#57606a">13.2K</text><text x="95.8" y="139" font-size="13" text-anchor="end" fill="#24292f">Lua</text><rect x="101.8" y="126" width="260" height="12" rx="2" fill="#d0d7de"/><rect x="101.8" y="126" width="90" height="12" rx="2" fill="#000080"/><text x="369.8" y="139" font-size="13" fill="#57606a">4.3K</text><text x="95.8" y="161" font-size="13" text-anchor="end" fill="#24292f">Elixir</text><rect x="101.8" y="148" width="260" height="12" rx="2" fill="#d0d7de"/><rect x="101.8" y="148" width="83" height="12" rx="2" fill="#6e4a7e"/><text x="369.8" y="161" font-size="13" fill="#57606a">3.6K</text><text x="95.8" y="183" font-size="13" text-anchor="end" fill="#24292f">Go</text><rect x="101.8" y="170" width="260" height="12" rx="2" fill="#d0d7de"/><rect x="101.8" y="170" width="79" height="12" rx="2" fill="#00ADD8"/><text x="369.8" y="183" font-size="13" fill="#57606a">3.3K</text><text x="95.8" y="205" font-size="13" text-anchor="end" fill="#24292f">CUDA</text><rect x="101.8" y="192" width="260" height="12" rx="2" fill="#d0d7de"/><rect x="101.8" y="192" width="69" height="12" rx="2" fill="#888888"/><text x="369.8" y="205" font-size="13" fill="#57606a">2.5K</text><text x="95.8" y="227" font-size="13" text-anchor="end" fill="#24292f">Nix</text><rect x="101.8" y="214" width="260" height="12" rx="2" fill="#d0d7de"/><rect x="101.8" y="214" width="66" height="12" rx="2" fill="#7e7eff"/><text x="369.8" y="227" font-size="13" fill="#57606a">2.3K</text><text x="95.8" y="249" font-size="13" text-anchor="end" fill="#24292f">C++</text><rect x="101.8" y="236" width="260" height="12" rx="2" fill="#d0d7de"/><rect x="101.8" y="236" width="60" height="12" rx="2" fill="#f34b7d"/><text x="369.8" y="249" font-size="13" fill="#57606a">1.9K</text><text x="95.8" y="271" font-size="13" text-anchor="end" fill="#24292f">Zig</text><rect x="101.8" y="258" width="260" height="12" rx="2" fill="#d0d7de"/><rect x="101.8" y="258" width="53" height="12" rx="2" fill="#ec915c"/><text x="369.8" y="271" font-size="13" fill="#57606a">1.5K</text><text x="95.8" y="293" font-size="13" text-anchor="end" fill="#24292f">Shell</text><rect x="101.8" y="280" width="260" height="12" rx="2" fill="#d0d7de"/><rect x="101.8" y="280" width="53" height="12" rx="2" fill="#89e051"/><text x="369.8" y="293" font-size="13" fill="#57606a">1.5K</text><text x="95.8" y="315" font-size="13" text-anchor="end" fill="#24292f">Haskell</text><rect x="101.8" y="302" width="260" height="12" rx="2" fill="#d0d7de"/><rect x="101.8" y="302" width="43" height="12" rx="2" fill="#5e5086"/><text x="369.8" y="315" font-size="13" fill="#57606a">988</text><text x="95.8" y="337" font-size="13" text-anchor="end" fill="#24292f">C</text><rect x="101.8" y="324" width="260" height="12" rx="2" fill="#d0d7de"/><rect x="101.8" y="324" width="36" height="12" rx="2" fill="#555555"/><text x="369.8" y="337" font-size="13" fill="#57606a">683</text><text x="95.8" y="359" font-size="13" text-anchor="end" fill="#24292f">Rust</text><rect x="101.8" y="346" width="260" height="12" rx="2" fill="#d0d7de"/><rect x="101.8" y="346" width="32" height="12" rx="2" fill="#dea584"/><text x="369.8" y="359" font-size="13" fill="#57606a">548</text><text x="95.8" y="381" font-size="13" text-anchor="end" fill="#24292f">COBOL</text><rect x="101.8" y="368" width="260" height="12" rx="2" fill="#d0d7de"/><rect x="101.8" y="368" width="26" height="12" rx="2" fill="#555555"/><text x="369.8" y="381" font-size="13" fill="#57606a">367</text><text x="95.8" y="403" font-size="13" text-anchor="end" fill="#24292f">Arduino</text><rect x="101.8" y="390" width="260" height="12" rx="2" fill="#d0d7de"/><rect x="101.8" y="390" width="24" height="12" rx="2" fill="#bd79d1"/><text x="369.8" y="403" font-size="13" fill="#57606a">299</text><text x="95.8" y="425" font-size="13" text-anchor="end" fill="#24292f">Assembly</text><rect x="101.8" y="412" width="260" height="12" rx="2" fill="#d0d7de"/><rect x="101.8" y="412" width="23" height="12" rx="2" fill="#6E4C13"/><text x="369.8" y="425" font-size="13" fill="#57606a">287</text><text x="95.8" y="447" font-size="13" text-anchor="end" fill="#24292f">PowerShell</text><rect x="101.8" y="434" width="260" height="12" rx="2" fill="#d0d7de"/><rect x="101.8" y="434" width="23" height="12" rx="2" fill="#012456"/><text x="369.8" y="447" font-size="13" fill="#57606a">287</text><text x="95.8" y="469" font-size="13" text-anchor="end" fill="#24292f">SQL</text><rect x="101.8" y="456" width="260" height="12" rx="2" fill="#d0d7de"/><rect x="101.8" y="456" width="23" height="12" rx="2" fill="#e38c00"/><text x="369.8" y="469" font-size="13" fill="#57606a">275</text><text x="95.8" y="491" font-size="13" text-anchor="end" fill="#24292f">Dockerfile</text><rect x="101.8" y="478" width="260" height="12" rx="2" fill="#d0d7de"/><rect x="101.8" y="478" width="18" height="12" rx="2" fill="#384d54"/><text x="369.8" y="491" font-size="13" fill="#57606a">171</text><text x="95.8" y="513" font-size="13" text-anchor="end" fill="#24292f">CMake</text><rect x="101.8" y="500" width="260" height="12" rx="2" fill="#d0d7de"/><rect x="101.8" y="500" width="12" height="12" rx="2" fill="#DA3434"/><text x="369.8" y="513" font-size="13" fill="#57606a">81</text><text x="95.8" y="535" font-size="13" text-anchor="end" fill="#24292f">Makefile</text><rect x="101.8" y="522" width="260" height="12" rx="2" fill="#d0d7de"/><rect x="101.8" y="522" width="9" height="12" rx="2" fill="#427819"/><text x="369.8" y="535" font-size="13" fill="#57606a">45</text><text x="95.8" y="557" font-size="13" text-anchor="end" fill="#24292f">Svelte</text><rect x="101.8" y="544" width="260" height="12" rx="2" fill="#d0d7de"/><rect x="101.8" y="544" width="8" height="12" rx="2" fill="#ff3e00"/><text x="369.8" y="557" font-size="13" fill="#57606a">31</text></g><line x1="444" y1="660" x2="444" y2="1289" stroke="#d0d7de"/><g transform="translate(0,644)"><text x="460" y="29" font-size="15" font-weight="bold" fill="#0969da">$ ls ~/selected-repos</text><text x="460" y="62.6" font-size="13" font-weight="bold" fill="#0b6e6e">&#9656; GUDForum</text><text x="460" y="83.6" font-size="12" font-style="italic" fill="#9a6700">Go · Gin · PostgreSQL · React · TS</text><text x="460" y="104.6" font-size="13" fill="#24292f">Real-time drone society forum with</text><text x="460" y="125.6" font-size="13" fill="#24292f">secure auth</text><text x="460" y="157.1" font-size="13" font-weight="bold" fill="#0b6e6e">&#9656; CVinTUI</text><text x="460" y="178.1" font-size="12" font-style="italic" fill="#9a6700">Go · Bubbletea · Lipgloss · AWS</text><text x="460" y="199.1" font-size="13" fill="#24292f">SSH-accessible terminal CV, cloud-</text><text x="460" y="220.1" font-size="13" fill="#24292f">hosted</text><text x="460" y="251.6" font-size="13" font-weight="bold" fill="#0b6e6e">&#9656; DYHTG2024T01</text><text x="460" y="272.6" font-size="12" font-style="italic" fill="#9a6700">React Native · DSP</text><text x="460" y="293.6" font-size="13" fill="#24292f">Hackathon rhythm game with live beatmap</text><text x="460" y="314.6" font-size="13" fill="#24292f">generation</text><text x="460" y="346.1" font-size="13" font-weight="bold" fill="#0b6e6e">&#9656; Drone Swarm Sim</text><text x="460" y="367.1" font-size="12" font-style="italic" fill="#9a6700">Distributed Systems · Simulation</text><text x="460" y="388.1" font-size="13" fill="#24292f">Distributed drone-swarm logic</text><text x="460" y="409.1" font-size="13" fill="#24292f">autonomously forming 2D/3D shapes</text><text x="460" y="440.6" font-size="13" font-weight="bold" fill="#0b6e6e">&#9656; UGRacing Telemetry</text><text x="460" y="461.6" font-size="12" font-style="italic" fill="#9a6700">Arduino · LTE-M · Terraform · C/C++</text><text x="460" y="482.6" font-size="13" fill="#24292f">Sub-500ms racecar telemetry pipeline,</text><text x="460" y="503.6" font-size="13" fill="#24292f">live track-side diagnostics</text><text x="460" y="535.1" font-size="13" font-weight="bold" fill="#0b6e6e">&#9656; CAN Display</text><text x="460" y="556.1" font-size="12" font-style="italic" fill="#9a6700">C · CAN Protocol · LCD</text><text x="460" y="577.1" font-size="13" fill="#24292f">Low-level CAN bus data visualization on</text><text x="460" y="598.1" font-size="13" fill="#24292f">LCD</text></g></g></g><rect x="0.5" y="0.5" width="816" height="1318" rx="8" fill="none" stroke="#d0d7de"/></svg>